<?xml version="1.0" standalone="no"?>
<!DOCTYPE svg PUBLIC "-//W3C//DTD SVG 20010904//EN"
 "http://www.w3.org/TR/2001/REC-SVG-20010904/DTD/svg10.dtd">
<svg version="1.0" xmlns="http://www.w3.org/2000/svg"
 width="179.000000pt" height="189.000000pt" viewBox="0 0 179.000000 189.000000"
 preserveAspectRatio="xMidYMid meet">

<g transform="translate(0.000000,189.000000) scale(0.100000,-0.100000)"
fill="#000000" stroke="none">
<path d="M824 1844 c-39 -19 -64 -62 -64 -111 0 -50 18 -82 59 -110 56 -38
125 -25 170 33 26 32 28 101 5 145 -27 53 -108 74 -170 43z m127 -53 c32 -33
36 -58 14 -100 -42 -83 -166 -53 -169 40 -2 83 94 120 155 60z"/>
<path d="M1369 1633 c-38 -24 -59 -65 -59 -117 0 -81 48 -126 136 -126 39 0
51 5 79 33 62 62 55 158 -14 204 -40 27 -104 30 -142 6z m120 -48 c49 -42 44
-112 -10 -140 -42 -22 -67 -18 -100 14 -33 33 -38 74 -13 109 32 46 80 53 123
17z"/>
<path d="M1559 1087 c-19 -12 -41 -37 -49 -54 l-15 -33 -137 0 -138 0 0 -30 0
-30 138 0 137 0 19 -34 c41 -77 153 -88 213 -22 32 34 38 56 33 116 -6 88
-124 139 -201 87z m125 -52 c37 -34 37 -95 0 -124 -35 -27 -77 -27 -108 2 -58
52 -20 145 60 147 12 0 33 -11 48 -25z"/>
<path d="M1119 743 c-13 -16 -12 -17 4 -4 9 7 17 15 17 17 0 8 -8 3 -21 -13z"/>
<path d="M1386 579 c-84 -23 -122 -127 -73 -200 50 -76 138 -86 205 -24 35 32
37 37 37 95 0 58 -2 63 -37 96 -21 19 -46 34 -55 35 -10 0 -25 2 -33 3 -8 2
-28 -1 -44 -5z m99 -74 c42 -41 30 -102 -26 -131 -40 -20 -83 -4 -105 38 -44
84 65 160 131 93z"/>
<path d="M835 360 c-83 -34 -107 -158 -43 -217 119 -108 289 39 201 173 -28
43 -108 65 -158 44z m97 -50 c40 -31 53 -72 34 -109 -30 -58 -95 -69 -140 -24
-22 22 -26 34 -24 67 2 33 9 44 37 63 42 28 61 29 93 3z"/>
</g>
</svg>
